<svg width="365" height="72" viewBox="0 0 365 72" fill="none" xmlns="http://www.w3.org/2000/svg">
<mask id="mask0_1414_246" style="mask-type:alpha" maskUnits="userSpaceOnUse" x="0" y="0" width="365" height="72">
<path d="M0 10C0 4.47715 4.47715 0 10 0H355C360.523 0 365 4.47715 365 10V72H0V10Z" fill="#C4C4C4"/>
</mask>
<g mask="url(#mask0_1414_246)">
<rect width="365" height="72" fill="#DADDE0"/>
<path d="M290.989 18.2404C291.767 18.2404 292.399 18.9377 292.399 19.7977L291.97 153.867C291.97 155.715 290.615 157.213 288.943 157.213H272.52C270.848 157.213 269.493 155.715 269.493 153.867L269.064 19.7977C269.064 18.9377 269.695 18.2404 270.474 18.2404H290.989ZM290.989 11.9299H270.473C266.548 11.9299 263.355 15.4595 263.355 19.7984L263.783 153.89C263.783 159.192 267.702 163.523 272.519 163.523H288.942C293.759 163.523 297.678 159.192 297.678 153.867L298.107 19.8203C298.107 15.4595 294.914 11.9299 290.989 11.9299Z" fill="#989DA4"/>
<path d="M288.943 96.6753H272.519C270.848 96.6753 269.492 95.1771 269.492 93.3295L269.064 21.5861C269.064 19.7385 270.419 18.2404 272.09 18.2404H289.372C291.043 18.2404 292.399 19.7385 292.399 21.5861L291.97 93.3302C291.969 95.1778 290.614 96.6753 288.943 96.6753Z" fill="#BABEC2"/>
<path d="M279.99 52.5621C279.404 52.5621 278.928 52.0353 278.928 51.3879V30.2569C278.928 29.6096 279.404 29.0827 279.99 29.0827H281.473C282.059 29.0827 282.535 29.6096 282.535 30.2569V51.3879C282.535 52.0353 282.059 52.5621 281.473 52.5621H279.99Z" fill="#727171"/>
<path d="M281.473 29.3997C281.901 29.3997 282.25 29.785 282.25 30.2576V51.3886C282.25 51.862 281.901 52.2466 281.473 52.2466H279.99C279.562 52.2466 279.214 51.8613 279.214 51.3886V30.2576C279.214 29.7843 279.562 29.3997 279.99 29.3997H281.473ZM281.473 28.7686H279.99C279.246 28.7686 278.643 29.4356 278.643 30.2576V51.3886C278.643 52.2113 279.246 52.8777 279.99 52.8777H281.473C282.217 52.8777 282.821 52.2106 282.821 51.3886V30.2576C282.82 29.4349 282.217 28.7686 281.473 28.7686Z" fill="#E7E7E7"/>
<path d="M287.431 61.6689H286.204C285.389 61.6689 284.729 60.9385 284.729 60.0383V58.6817C284.729 57.6667 285.473 56.844 286.391 56.844H287.432C288.247 56.844 288.907 57.5744 288.907 58.4746V60.0376C288.906 60.9385 288.246 61.6689 287.431 61.6689Z" fill="#C9CACA"/>
<path d="M297.474 80.9707H302.412C303.541 80.9707 304.456 81.9821 304.456 83.2303V132.963C304.456 134.211 305.371 135.223 306.5 135.223H308.278C309.407 135.223 310.322 134.211 310.322 132.963V53.8954" stroke="#989DA4" stroke-width="2.8498" stroke-miterlimit="10"/>
<path d="M303.072 29.9821C302.217 30.3146 301.797 31.319 302.052 32.1995C302.42 33.4751 302.974 35.5706 303.509 37.4231C303.909 38.8079 304.565 40.087 305.428 41.1844L305.804 41.6634C306.617 42.4544 307.133 43.549 307.259 44.7379C307.518 47.1786 307.671 50.9653 307.297 51.6182C306.731 52.6064 307.373 53.8968 308.431 53.8968H311.567C312.309 53.8968 312.91 53.2326 312.91 52.4127V50.1686V46.365C312.91 42.6924 312.411 39.041 311.43 35.5318L309.741 29.5123C309.365 28.622 308.866 28.2656 308.367 28.1233C307.88 27.9845 307.365 28.0465 306.899 28.2564L303.072 29.9821Z" fill="#989DA4"/>
<path d="M155.261 10.254C126.96 10.254 103.202 24.4363 96.4087 43.6384H81.3465C73.8439 43.6384 67.8137 49.6628 67.8137 57.1583V66.1604C67.8137 73.6558 73.8439 79.7135 81.3465 79.7135H88.5617C88.4915 79.0081 88.4617 78.2783 88.4617 77.5543C88.4617 65.7922 98.0018 56.2614 109.775 56.2614C121.548 56.2614 131.088 65.7922 131.088 77.5543C131.088 78.2783 131.06 79.0081 130.988 79.7135H176.973C176.903 79.0081 176.873 78.2783 176.873 77.5543C176.873 65.7922 186.413 56.2614 198.186 56.2614C209.96 56.2614 219.5 65.7922 219.5 77.5543C219.5 78.2783 219.471 79.0081 219.399 79.7135H229.208C236.711 79.7135 242.741 73.6558 242.741 66.1604V57.1583C242.742 49.6628 236.712 43.6384 229.209 43.6384H214.147C207.346 24.4363 183.562 10.254 155.261 10.254Z" fill="#BBBFC3"/>
<path fill-rule="evenodd" clip-rule="evenodd" d="M125.23 77.5486C125.23 86.0787 118.309 92.9937 109.77 92.9937C101.232 92.9937 94.3102 86.0787 94.3102 77.5486C94.3102 69.0184 101.232 62.1034 109.77 62.1034C118.309 62.1034 125.23 69.0184 125.23 77.5486Z" fill="#81858B"/>
<path fill-rule="evenodd" clip-rule="evenodd" d="M213.633 77.5486C213.633 86.0787 206.711 92.9937 198.173 92.9937C189.635 92.9937 182.713 86.0787 182.713 77.5486C182.713 69.0184 189.635 62.1034 198.173 62.1034C206.711 62.1034 213.633 69.0184 213.633 77.5486Z" fill="#81858B"/>
<path opacity="0.413" d="M155.261 10.2426C126.96 10.2426 103.202 24.4249 96.4087 43.627H81.3465C73.8439 43.627 67.8137 49.6515 67.8137 57.1469V66.1823C67.8137 73.6777 73.8439 79.7021 81.3465 79.7021H88.5617C88.4915 78.9967 88.4617 78.267 88.4617 77.543C88.4617 65.7809 98.0017 56.25 109.775 56.25C121.548 56.25 131.088 65.7809 131.088 77.543C131.088 78.267 131.06 78.9967 130.988 79.7021H137.239L170.822 11.7042C165.855 10.7426 160.64 10.2426 155.261 10.2426Z" fill="#AAAEB3"/>
<path opacity="0.466" d="M155.261 10.2426C137.14 10.2426 120.877 16.0672 109.742 25.2905L170.19 79.7021H176.973C176.903 78.9966 176.873 78.267 176.873 77.543C176.873 65.7808 186.413 56.25 198.186 56.25C209.96 56.25 219.5 65.7808 219.5 77.543C219.5 78.267 219.471 78.9967 219.4 79.7021H229.208C236.711 79.7021 242.741 73.6777 242.741 66.1823V57.1469C242.741 49.6515 236.711 43.627 229.208 43.627H214.146C207.345 24.4249 183.562 10.2426 155.261 10.2426Z" fill="#B9BDC1"/>
<path d="M148.877 21.0717C131.206 22.8213 116.61 31.7221 110.673 43.6602H148.877V21.0717ZM161.645 21.0717V43.6602H199.849C193.901 31.7148 179.329 22.8136 161.645 21.0717Z" fill="#989DA4"/>
<path fill-rule="evenodd" clip-rule="evenodd" d="M225.453 43.627C225.209 44.496 225.054 45.402 225.054 46.3509C225.054 51.9203 229.554 56.416 235.128 56.416H242.709C242.315 49.2788 236.456 43.627 229.21 43.627H225.453Z" fill="#989DA4"/>
<path fill-rule="evenodd" clip-rule="evenodd" d="M85.0706 43.627C85.3145 44.496 85.4696 45.402 85.4696 46.3509C85.4696 51.9204 80.9696 56.4161 75.3947 56.4161H67.8137C68.2078 49.2789 74.0675 43.627 81.3134 43.627H85.0706Z" fill="#AAAEB2"/>
<path opacity="0.413" fill-rule="evenodd" clip-rule="evenodd" d="M121.812 67.8546L106.55 92.6355C107.589 92.8554 108.671 93.0009 109.775 93.0009C118.314 93.0009 125.237 86.0845 125.237 77.5543C125.237 73.8816 123.955 70.5054 121.812 67.8546Z" fill="#3A3A3A"/>
<path opacity="0.466" fill-rule="evenodd" clip-rule="evenodd" d="M194.732 92.5181L191.374 63.6163C190.421 64.0857 189.481 64.6403 188.614 65.323C181.906 70.6011 180.751 80.314 186.034 87.0152C188.309 89.9004 191.407 91.7602 194.732 92.5181Z" fill="#3A3A3A"/>
</g>
</svg>
