<svg width="16" height="17" viewBox="0 0 16 17" fill="none" xmlns="http://www.w3.org/2000/svg">
<path d="M10.6733 5.16667L10.6667 3.16667C10.6667 2.8 10.3667 2.5 10 2.5C9.63333 2.5 9.33333 2.8 9.33333 3.16667V5.16667H6.66667V3.16667C6.66667 2.8 6.36667 2.5 6 2.5C5.63333 2.5 5.33333 2.8 5.33333 3.16667V5.16667H5.32667C4.6 5.16667 4 5.76667 4 6.49333V9.6C4 9.95333 4.14 10.2933 4.38667 10.54L6.33333 12.5V13.8333C6.33333 14.2 6.63333 14.5 7 14.5H9C9.36667 14.5 9.66667 14.2 9.66667 13.8333V12.5L11.6133 10.5533C11.86 10.3 12 9.96 12 9.60667V6.49333C12 5.76 11.4067 5.16667 10.6733 5.16667Z" fill="#FFB800"/>
</svg>
