<svg width="16" height="17" viewBox="0 0 16 17" fill="none" xmlns="http://www.w3.org/2000/svg">
<path d="M12.6667 3.16665H12V2.49998C12 2.13331 11.7 1.83331 11.3333 1.83331C10.9667 1.83331 10.6667 2.13331 10.6667 2.49998V3.16665H5.33333V2.49998C5.33333 2.13331 5.03333 1.83331 4.66667 1.83331C4.3 1.83331 4 2.13331 4 2.49998V3.16665H3.33333C2.59333 3.16665 2.00667 3.76665 2.00667 4.49998L2 13.8333C2 14.5666 2.59333 15.1666 3.33333 15.1666H12.6667C13.4 15.1666 14 14.5666 14 13.8333V4.49998C14 3.76665 13.4 3.16665 12.6667 3.16665ZM12 13.8333H4C3.63333 13.8333 3.33333 13.5333 3.33333 13.1666V6.49998H12.6667V13.1666C12.6667 13.5333 12.3667 13.8333 12 13.8333ZM5.33333 7.83331H7.33333C7.7 7.83331 8 8.13331 8 8.49998V10.5C8 10.8666 7.7 11.1666 7.33333 11.1666H5.33333C4.96667 11.1666 4.66667 10.8666 4.66667 10.5V8.49998C4.66667 8.13331 4.96667 7.83331 5.33333 7.83331Z" fill="#FFB800"/>
</svg>
