<svg width="16" height="17" viewBox="0 0 16 17" fill="none" xmlns="http://www.w3.org/2000/svg">
<path d="M7.99998 1.83331C4.33331 1.83331 1.33331 4.83331 1.33331 8.49998C1.33331 12.1666 4.33331 15.1666 7.99998 15.1666C11.6666 15.1666 14.6666 12.1666 14.6666 8.49998C14.6666 4.83331 11.6666 1.83331 7.99998 1.83331ZM7.99998 13.8333C5.05998 13.8333 2.66665 11.44 2.66665 8.49998C2.66665 5.55998 5.05998 3.16665 7.99998 3.16665C10.94 3.16665 13.3333 5.55998 13.3333 8.49998C13.3333 11.44 10.94 13.8333 7.99998 13.8333ZM8.33331 5.16665H7.33331V9.16665L10.8 11.3L11.3333 10.4333L8.33331 8.63331V5.16665Z" fill="#FFB800"/>
</svg>
